<?xml version="1.0" encoding="UTF-8" standalone="no"?>
<svg
   id="Capa_1"
   data-name="Capa 1"
   viewBox="0 0 32.000001 41.999999"
   version="1.1"
   width="32"
   height="42"
   xmlns="http://www.w3.org/2000/svg"
   xmlns:svg="http://www.w3.org/2000/svg">
  <defs
     id="defs1">
    <style
       id="style1">
      .cls-1 {
        fill: #45c0f0;
      }

      .cls-1, .cls-2 {
        stroke-width: 0px;
      }

      .cls-2 {
        fill: #17243d;
      }
    </style>
  </defs>
  <path
     class="cls-2"
     d="m 9.8871697,10.601542 c -0.085001,-0.160002 0.014512,-0.540242 0.029025,-0.7171854 0.022805,-0.265415 0.060123,-0.53083 0.1098803,-0.7943627 0.101587,-0.5233005 0.259151,-1.0390716 0.466471,-1.5360188 0.437447,-1.0390716 1.096727,-1.9915539 1.890765,-2.8367407 1.664786,-1.776963 3.91007,-3.07392 6.737925,-3.89087124 C 21.005781,0.2748269 23.864734,0 27.696021,0 28.241275,0 29.675934,0.00941188 32,0.02823564 30.4679,3.1115676 28.842505,7.4052674 27.123816,12.907453 l -4.687522,14.8783 c -0.692451,2.217439 -1.764299,4.320053 -2.813342,6.424549 -0.777453,1.564255 -1.82235,3.00992 -3.174081,4.263582 -0.667573,0.619302 -1.345511,1.232956 -2.108452,1.75061 -1.148557,0.779303 -2.481629,1.336487 -3.88519,1.607549 C 7.7538393,42.351579 3.7380365,41.683335 1.7871483,39.582603 1.0262812,38.76377 0.38980654,37.419753 0.17419298,36.433388 -0.21142361,34.669602 0.09333789,32.634754 0.59920049,30.90485 2.1872773,25.47796 7.2106589,21.092024 12.870515,18.829408 c 5.178872,-2.068732 11.881552,-3.162392 18.06593,-3.109686 -0.516229,1.820257 -1.009652,3.45416 -1.559052,3.676281 -2.214186,0.897893 -7.874042,1.259309 -10.266524,1.615078 -3.692382,0.549654 -8.214047,1.792022 -10.9755596,4.685234 -1.5777108,1.652727 -2.9066368,3.50122 -3.6820163,5.571834 -1.2148996,3.245216 0.6468407,6.780318 4.6502042,6.964791 2.1499157,0.09977 3.8997027,-1.264957 5.0254547,-2.746387 1.020018,-1.342134 1.629541,-2.934624 2.20382,-4.480055 0.605376,-1.63202 1.190021,-3.269687 1.764299,-4.909236 C 19.859297,21.1052 21.56762,15.921137 23.226186,10.546953 L 25.788671,2.4113237 24.866093,2.2550865 c -1.241851,-0.2089437 -2.5148,-0.250356 -3.760798,-0.075295 -1.69381,0.2390617 -2.79261,0.8000098 -4.33715,1.8315519 -2.181014,1.456959 -3.321278,2.8875648 -3.321278,4.5045258"
     id="path1" />
  <ellipse
     class="cls-1"
     cx="24.882677"
     cy="39.130836"
     id="circle1"
     rx="2.9522474"
     ry="2.6805034" />
</svg>
