<?xml version="1.0" encoding="UTF-8" standalone="no"?>
<svg
   id="Capa_1"
   data-name="Capa 1"
   viewBox="0 0 100 42"
   version="1.1"
   width="100"
   height="42"
   xmlns="http://www.w3.org/2000/svg"
   xmlns:svg="http://www.w3.org/2000/svg">
  <defs
     id="defs1">
    <style
       id="style1">
      .cls-1 {
        fill: #002141;
        stroke-width: 0px;
      }
    </style>
  </defs>
  <g
     id="g3"
     transform="matrix(0.20838099,0,0,0.1882376,-46.854422,-51.283453)">
    <path
       class="cls-1"
       d="m 351.94,398.78 c 0,-35.43 40.4,-95.41 78.94,-95.41 5.59,0 11.19,1.24 16.16,3.73 l 3.73,-5.28 31.08,-3.11 c -9.63,15.54 -32.63,64.64 -32.63,81.73 0,2.18 0.62,6.22 3.73,6.22 8.39,0 33.87,-40.09 40.09,-48.17 l 6.22,5.59 c -9.94,14.61 -47.24,73.34 -70.55,73.34 -9.32,0 -11.19,-13.36 -11.5,-20.2 -11.19,11.81 -26.41,23.62 -43.51,23.62 -14.92,0 -21.75,-7.15 -21.75,-22.06 z m 43.2,-2.18 c 8.08,0 17.4,-8.08 22.69,-13.67 2.49,-19.58 13.98,-50.03 24.24,-67.13 -2.18,-0.93 -4.35,-1.55 -6.84,-1.55 -21.44,0 -48.17,53.14 -48.17,72.1 0,4.97 2.18,10.26 8.08,10.26 z"
       id="path1" />
    <path
       class="cls-1"
       d="m 519.45,405.3 c 0,-19.27 18.65,-41.64 18.65,-55 0,-1.24 -0.31,-2.8 -1.86,-2.8 -2.18,0 -4.35,1.86 -5.9,2.8 -18.65,12.12 -36.98,40.09 -47.24,59.36 -8.39,3.73 -17.71,6.22 -27.04,6.53 16.47,-38.85 33.56,-77.38 50.34,-115.92 12.12,-2.49 24.55,-4.35 36.98,-4.66 -7.46,14.29 -14.61,28.59 -22.37,42.89 l 0.93,0.62 c 11.81,-11.5 43.82,-40.4 60.6,-40.4 3.73,0 5.59,1.86 5.59,5.59 0,13.67 -28.52,46.87 -28.52,68.94 0,0.93 0.31,2.49 1.55,2.49 7.46,0 26.43,-26.36 32.33,-34.13 l 7.15,4.35 c -11.5,16.78 -49.49,73.34 -70,73.34 -8.08,0 -11.19,-6.84 -11.19,-13.98 z"
       id="path2" />
    <path
       class="cls-1"
       d="m 622.09,356.2 c 11.81,-9.95 27.04,-16.78 37.29,-28.28 l -0.31,-0.93 c -8.39,0.31 -42.89,5.28 -48.17,9.01 -4.04,2.8 -7.15,6.22 -10.26,9.94 l -7.15,-4.35 c 7.46,-10.57 13.36,-22.37 20.51,-32.94 9.32,-3.11 18.33,-6.53 27.66,-8.7 13.67,-3.11 27.66,-5.28 41.64,-7.46 l 6.22,30.46 -40.71,30.14 c -12.74,9.63 -26.11,17.4 -37.92,28.28 l 0.62,0.62 c 1.55,-0.31 3.11,-0.31 4.66,-0.31 14.29,0 22.37,9.01 30.45,9.01 12.43,0 43.82,-42.89 51.9,-54.08 l 6.22,5.59 c 0,0 -28.28,38.23 -42.89,56.87 -5.9,7.46 -13.98,18.02 -24.86,18.02 -4.97,0 -7.77,-2.8 -12.43,-4.04 -5.28,-1.55 -11.19,-1.55 -16.78,-1.55 -8.7,0 -17.09,3.73 -24.24,9.01 l -8.57,-25.9 c 16.47,-11.5 31.56,-25.69 47.1,-38.43 z"
       id="path3" />
  </g>
  <path
     class="cls-1"
     d="M 9.9377331,10.601542 C 9.8522972,10.44154 9.9523164,10.0613 9.9669081,9.8843566 9.9898331,9.6189416 10.027341,9.3535266 10.07735,9.0899939 10.179456,8.5666934 10.337826,8.0509223 10.546207,7.5539751 10.98589,6.5149035 11.648541,5.5624212 12.446641,4.7172344 14.11994,2.9402714 16.376705,1.6433143 19.219023,0.82636308 21.113206,0.2748269 23.986779,0 27.83766,0 28.385703,0 29.827698,0.00941188 32.16365,0.02823564 30.623714,3.1115676 28.990008,7.4052674 27.262528,12.907453 l -4.711494,14.8783 c -0.695992,2.217439 -1.773322,4.320053 -2.82773,6.424549 -0.781428,1.564255 -1.831669,3.00992 -3.190313,4.263582 -0.670986,0.619302 -1.352392,1.232956 -2.119234,1.75061 -1.154431,0.779303 -2.494321,1.336487 -3.90506,1.607549 C 7.7934928,42.351579 3.757153,41.683335 1.7962879,39.582603 1.0315296,38.76377 0.39180003,37.419753 0.17508381,36.433388 -0.21250485,34.669602 0.09381522,32.634754 0.60226483,30.90485 2.1984632,25.47796 7.2475346,21.092024 12.936335,18.829408 c 5.205358,-2.068732 11.942315,-3.162392 18.15832,-3.109686 -0.668902,2.349206 0.885619,2.688033 -1.567025,3.676281 -2.225509,0.897893 -7.91431,1.259309 -10.319026,1.615078 -3.711266,0.549654 -8.256055,1.792022 -11.0316902,4.685234 -1.5857793,1.652727 -2.9215014,3.50122 -3.7008463,5.571834 -1.2211127,3.245216 0.6501486,6.780318 4.6739856,6.964791 2.1609109,0.09977 3.9196469,-1.264957 5.0511549,-2.746387 1.025235,-1.342134 1.637875,-2.934624 2.21509,-4.480055 0.608472,-1.63202 1.196107,-3.269687 1.773322,-4.909236 1.771239,-4.992062 3.488299,-10.176125 5.155346,-15.550309 L 25.920555,2.4113237 24.99326,2.2550865 C 23.745058,2.0461428 22.465599,2.0047305 21.213229,2.1797915 19.510756,2.4188532 18.406337,2.9798013 16.853898,4.0113434 14.66173,5.4683024 13.515635,6.8989082 13.515635,8.5158692"
     id="path4" />
</svg>
